<svg width="139" height="40" viewBox="0 0 139 40" fill="none" xmlns="http://www.w3.org/2000/svg">
<path d="M35.144 39H27.416L26.84 25.992C26.68 22.888 26.6 20.12 26.6 17.688C26.6 15.832 26.648 14.072 26.744 12.408L21.608 35.496H14.168L8.69602 12.408C8.88802 15.192 8.98402 17.816 8.98402 20.28C8.98402 22.136 8.93602 24.072 8.84002 26.088L8.26402 39H0.584015L3.08001 5.736H13.016L18.008 28.296L22.664 5.736H32.648L35.144 39Z" fill="#141414"/>
<path d="M61.2144 39H54.6384L54.3024 35.784C52.4464 38.472 49.8704 39.816 46.5744 39.816C44.2384 39.816 42.4624 39.112 41.2464 37.704C40.0624 36.296 39.4704 34.328 39.4704 31.8V13.512H47.0544V30.84C47.0544 32.088 47.2464 32.968 47.6304 33.48C48.0464 33.96 48.6704 34.2 49.5024 34.2C51.1024 34.2 52.4784 33.208 53.6304 31.224V13.512H61.2144V39ZM44.7984 0.647995C45.8864 0.647995 46.7984 1.016 47.5344 1.752C48.3024 2.488 48.6864 3.384 48.6864 4.43999C48.6864 5.49599 48.3024 6.39199 47.5344 7.12799C46.7984 7.86399 45.8864 8.23199 44.7984 8.23199C43.7104 8.23199 42.7824 7.86399 42.0144 7.12799C41.2784 6.39199 40.9104 5.49599 40.9104 4.43999C40.9104 3.384 41.2784 2.488 42.0144 1.752C42.7824 1.016 43.7104 0.647995 44.7984 0.647995ZM55.8864 0.647995C57.0064 0.647995 57.9344 1.016 58.6704 1.752C59.4064 2.488 59.7744 3.384 59.7744 4.43999C59.7744 5.49599 59.4064 6.39199 58.6704 7.12799C57.9344 7.86399 57.0064 8.23199 55.8864 8.23199C54.8304 8.23199 53.9184 7.86399 53.1504 7.12799C52.4144 6.39199 52.0464 5.49599 52.0464 4.43999C52.0464 3.384 52.4144 2.488 53.1504 1.752C53.9184 1.016 54.8304 0.647995 55.8864 0.647995Z" fill="#141414"/>
<path d="M73.9471 39.816C71.7391 39.816 70.0111 39.192 68.7631 37.944C67.5471 36.664 66.9391 34.856 66.9391 32.52V3.38399L74.5231 2.56799V32.232C74.5231 33.288 74.9551 33.816 75.8191 33.816C76.2671 33.816 76.6831 33.736 77.0671 33.576L78.5551 38.952C77.1791 39.528 75.6431 39.816 73.9471 39.816Z" fill="#141414"/>
<path d="M88.1971 39.816C85.9891 39.816 84.2611 39.192 83.0131 37.944C81.7971 36.664 81.1891 34.856 81.1891 32.52V3.38399L88.7731 2.56799V32.232C88.7731 33.288 89.2051 33.816 90.0691 33.816C90.5171 33.816 90.9331 33.736 91.3171 33.576L92.8051 38.952C91.4291 39.528 89.8931 39.816 88.1971 39.816Z" fill="#141414"/>
<path d="M117.669 25.752C117.669 26.808 117.621 27.72 117.525 28.488H101.733C101.989 30.632 102.597 32.136 103.557 33C104.517 33.864 105.845 34.296 107.541 34.296C108.565 34.296 109.557 34.12 110.517 33.768C111.477 33.384 112.517 32.808 113.637 32.04L116.757 36.264C113.781 38.632 110.469 39.816 106.821 39.816C102.693 39.816 99.5248 38.6 97.3168 36.168C95.1088 33.736 94.0048 30.472 94.0048 26.376C94.0048 23.784 94.4688 21.464 95.3968 19.416C96.3248 17.336 97.6848 15.704 99.4768 14.52C101.269 13.304 103.413 12.696 105.909 12.696C109.589 12.696 112.469 13.848 114.549 16.152C116.629 18.456 117.669 21.656 117.669 25.752ZM110.229 23.592C110.165 19.688 108.789 17.736 106.101 17.736C104.789 17.736 103.765 18.216 103.029 19.176C102.325 20.136 101.893 21.72 101.733 23.928H110.229V23.592Z" fill="#141414"/>
<path d="M135.753 12.792C136.681 12.792 137.529 12.904 138.297 13.128L137.097 20.472C136.137 20.248 135.369 20.136 134.793 20.136C133.289 20.136 132.137 20.664 131.337 21.72C130.569 22.744 129.961 24.296 129.513 26.376V39H121.929V13.512H128.553L129.177 18.456C129.753 16.696 130.617 15.32 131.769 14.328C132.953 13.304 134.281 12.792 135.753 12.792Z" fill="#141414"/>
</svg>
